# Exported from Wings 3D 0.98.36
mtllib heart.mtl
o cylinder3
#140 vertices, 111 faces
v -0.55246847 -1.5424829e-2 0.15000000
v -0.59814129 -5.8194607e-2 8.7427962e-2
v -0.64706435 5.5746876e-3 8.7427962e-2
v -0.68260659 7.7663089e-2 8.7427962e-2
v -0.70340216 0.15530028 8.7427962e-2
v -0.70865187 0.23550271 8.7427962e-2
v -0.69815400 0.31518823 8.7427962e-2
v -0.67231196 0.39129459 8.7427962e-2
v -0.63211886 0.46089706 8.7427962e-2
v -0.57911929 0.52132085 8.7427962e-2
v -0.51535000 0.57024391 8.7427962e-2
v -0.44326160 0.60578615 8.7427962e-2
v -0.36562440 0.62658171 8.7427962e-2
v -0.28542198 0.63183143 8.7427962e-2
v -0.20573645 0.62133356 8.7427962e-2
v -0.12963009 0.59549152 8.7427962e-2
v -6.0027624e-2 0.55529842 8.7427962e-2
v -4.5276651e-2 0.45952907 0.15000000
v 3.9616474e-4 0.50229885 8.7427962e-2
v -0.59814129 -5.8194607e-2 -8.7427962e-2
v -0.55246847 -1.5424829e-2 -0.15000000
v -0.64706435 5.5746876e-3 -8.7427962e-2
v -0.68260659 7.7663089e-2 -8.7427962e-2
v -0.70340216 0.15530028 -8.7427962e-2
v -0.70865187 0.23550271 -8.7427962e-2
v -0.69815400 0.31518823 -8.7427962e-2
v -0.67231196 0.39129459 -8.7427962e-2
v -0.63211886 0.46089706 -8.7427962e-2
v -0.57911929 0.52132085 -8.7427962e-2
v -0.51535000 0.57024391 -8.7427962e-2
v -0.44326160 0.60578615 -8.7427962e-2
v -0.36562440 0.62658171 -8.7427962e-2
v -0.28542198 0.63183143 -8.7427962e-2
v -0.20573645 0.62133356 -8.7427962e-2
v -0.12963009 0.59549152 -8.7427962e-2
v -6.0027624e-2 0.55529842 -8.7427962e-2
v 3.9616474e-4 0.50229885 -8.7427962e-2
v -4.5276651e-2 0.45952907 -0.15000000
v 0.59118728 0.53163140 8.7427962e-2
v 0.64529559 0.47219842 8.7427962e-2
v 0.68676942 0.40335141 8.7427962e-2
v 0.71401495 0.32773614 8.7427962e-2
v 0.72598517 0.24825845 8.7427962e-2
v 0.72222005 0.16797263 8.7427962e-2
v 0.70286429 8.9964022e-2 8.7427962e-2
v 0.66866172 1.7230446e-2 8.7427962e-2
v 0.57447051 -5.5154471e-3 0.15000000
v 0.62092673 -4.7432985e-2 8.7427962e-2
v 5.8579108e-2 0.45997441 0.15000000
v 1.2122892e-2 0.50189195 8.7427962e-2
v 7.1555879e-2 0.55600026 8.7427962e-2
v 0.14040288 0.59747409 8.7427962e-2
v 0.21601816 0.62471962 8.7427962e-2
v 0.29549584 0.63668984 8.7427962e-2
v 0.37578166 0.63292472 8.7427962e-2
v 0.45379027 0.61356896 8.7427962e-2
v 0.52652385 0.57936639 8.7427962e-2
v 0.59118728 0.53163140 -8.7427962e-2
v 0.64529559 0.47219842 -8.7427962e-2
v 0.68676942 0.40335141 -8.7427962e-2
v 0.71401495 0.32773614 -8.7427962e-2
v 0.72598517 0.24825845 -8.7427962e-2
v 0.72222005 0.16797263 -8.7427962e-2
v 0.70286429 8.9964022e-2 -8.7427962e-2
v 0.66866172 1.7230446e-2 -8.7427962e-2
v 0.62092673 -4.7432985e-2 -8.7427962e-2
v 0.57447051 -5.5154471e-3 -0.15000000
v 1.2122892e-2 0.50189195 -8.7427962e-2
v 5.8579108e-2 0.45997441 -0.15000000
v 7.1555879e-2 0.55600026 -8.7427962e-2
v 0.14040288 0.59747409 -8.7427962e-2
v 0.21601816 0.62471962 -8.7427962e-2
v 0.29549584 0.63668984 -8.7427962e-2
v 0.37578166 0.63292472 -8.7427962e-2
v 0.45379027 0.61356896 -8.7427962e-2
v 0.52652385 0.57936639 -8.7427962e-2
v 3.7067214e-3 -0.63222102 8.7427962e-2
v 3.7067214e-3 -0.63222102 -8.7427962e-2
v 3.8499910e-3 -0.54588856 -0.15000000
v 0.10912264 0.50558222 -0.15000000
v 0.16741174 0.54069591 -0.15000000
v 0.23143117 0.56376325 -0.15000000
v 0.29872070 0.57389780 -0.15000000
v 0.36669444 0.57071007 -0.15000000
v 0.43274018 0.55432258 -0.15000000
v 0.49431983 0.52536508 -0.15000000
v 0.54906692 0.48495040 -0.15000000
v 0.59487755 0.43463165 -0.15000000
v 0.62999123 0.37634256 -0.15000000
v 0.65305858 0.31232312 -0.15000000
v 0.66319312 0.24503359 -0.15000000
v 0.66000540 0.17705986 -0.15000000
v 0.64361791 0.11101411 -0.15000000
v 0.61466041 4.9434463e-2 -0.15000000
v -0.59366804 3.8772187e-2 -0.15000000
v -0.62375977 9.9805604e-2 -0.15000000
v -0.64136626 0.16553689 -0.15000000
v -0.64581092 0.23344002 -0.15000000
v -0.63692293 0.30090552 -0.15000000
v -0.61504385 0.36534072 -0.15000000
v -0.58101449 0.42426943 -0.15000000
v -0.53614257 0.47542704 -0.15000000
v -0.48215250 0.51684760 -0.15000000
v -0.42111908 0.54693933 -0.15000000
v -0.35538780 0.56454582 -0.15000000
v -0.28748467 0.56899048 -0.15000000
v -0.22001917 0.56010249 -0.15000000
v -0.15558396 0.53822341 -0.15000000
v -9.6655252e-2 0.50419405 -0.15000000
v 0.61466041 4.9434463e-2 0.15000000
v 0.64361791 0.11101411 0.15000000
v 0.66000540 0.17705986 0.15000000
v 0.66319312 0.24503359 0.15000000
v 0.65305858 0.31232312 0.15000000
v 0.62999123 0.37634256 0.15000000
v 0.59487755 0.43463165 0.15000000
v 0.54906692 0.48495040 0.15000000
v 0.49431983 0.52536508 0.15000000
v 0.43274018 0.55432258 0.15000000
v 0.36669444 0.57071007 0.15000000
v 0.29872070 0.57389780 0.15000000
v 0.23143117 0.56376325 0.15000000
v 0.16741174 0.54069591 0.15000000
v 0.10912264 0.50558222 0.15000000
v -9.6655252e-2 0.50419405 0.15000000
v -0.15558396 0.53822341 0.15000000
v -0.22001917 0.56010249 0.15000000
v -0.28748467 0.56899048 0.15000000
v -0.35538780 0.56454582 0.15000000
v -0.42111908 0.54693933 0.15000000
v -0.48215250 0.51684760 0.15000000
v -0.53614257 0.47542704 0.15000000
v -0.58101449 0.42426943 0.15000000
v -0.61504385 0.36534072 0.15000000
v -0.63692293 0.30090552 0.15000000
v -0.64581092 0.23344002 0.15000000
v -0.64136626 0.16553689 0.15000000
v -0.62375977 9.9805604e-2 0.15000000
v -0.59366804 3.8772187e-2 0.15000000
v 3.8499910e-3 -0.54588856 0.15000000
vn -0.28450893 -0.25497953 0.92414290
vn -0.68745093 -0.61683770 0.38330467
vn -0.78434292 -0.48721010 0.38396941
vn -0.86407918 -0.32513029 0.38426223
vn -0.91090592 -0.15030952 0.38426223
vn -0.92272705 3.0287566e-2 0.38426223
vn -0.89908830 0.20972072 0.38426223
vn -0.84089808 0.38109442 0.38426223
vn -0.75039263 0.53782287 0.38426223
vn -0.63105001 0.67388310 0.38426223
vn -0.48745649 0.78404637 0.38426223
vn -0.32513029 0.86407918 0.38426223
vn -0.15030952 0.91090592 0.38426223
vn 3.0287566e-2 0.92272705 0.38426223
vn 0.20972072 0.89908830 0.38426223
vn 0.38109442 0.84089808 0.38426223
vn 0.53759646 0.75070470 0.38396941
vn 0.13040465 0.38138785 0.91517099
vn 0.32619184 0.87557296 0.35632973
vn -0.68745093 -0.61683770 -0.38330467
vn -0.28450893 -0.25497953 -0.92414290
vn -0.78434292 -0.48721010 -0.38396941
vn -0.86407918 -0.32513029 -0.38426223
vn -0.91090592 -0.15030952 -0.38426223
vn -0.92272705 3.0287566e-2 -0.38426223
vn -0.89908830 0.20972072 -0.38426223
vn -0.84089808 0.38109442 -0.38426223
vn -0.75039263 0.53782287 -0.38426223
vn -0.63105001 0.67388310 -0.38426223
vn -0.48745649 0.78404637 -0.38426223
vn -0.32513029 0.86407918 -0.38426223
vn -0.15030952 0.91090592 -0.38426223
vn 3.0287566e-2 0.92272705 -0.38426223
vn 0.20972072 0.89908830 -0.38426223
vn 0.38109442 0.84089808 -0.38426223
vn 0.53759646 0.75070470 -0.38396941
vn 0.32619184 0.87557296 -0.35632973
vn 0.13040465 0.38138785 -0.91517099
vn 0.61847556 0.68544184 0.38426223
vn 0.74031480 0.55161267 0.38426223
vn 0.83370415 0.39658534 0.38426223
vn 0.89505472 0.22631745 0.38426223
vn 0.92200884 4.7352311e-2 0.38426223
vn 0.91353068 -0.13343255 0.38426223
vn 0.86994604 -0.30908968 0.38426223
vn 0.79322181 -0.47261682 0.38396941
vn 0.28626313 -0.25267959 0.92423290
vn 0.69203648 -0.61155358 0.38352019
vn -0.13337271 0.37915538 0.91567075
vn -0.31640440 0.87779769 0.35966577
vn -0.55139207 0.74063100 0.38396941
vn -0.39658534 0.83370415 0.38426223
vn -0.22631745 0.89505472 0.38426223
vn -4.7352311e-2 0.92200884 0.38426223
vn 0.13343255 0.91353068 0.38426223
vn 0.30908968 0.86994604 0.38426223
vn 0.47286866 0.79292987 0.38426223
vn 0.61847556 0.68544184 -0.38426223
vn 0.74031480 0.55161267 -0.38426223
vn 0.83370415 0.39658534 -0.38426223
vn 0.89505472 0.22631745 -0.38426223
vn 0.92200884 4.7352311e-2 -0.38426223
vn 0.91353068 -0.13343255 -0.38426223
vn 0.86994604 -0.30908968 -0.38426223
vn 0.79322181 -0.47261682 -0.38396941
vn 0.69203648 -0.61155358 -0.38352019
vn 0.28626313 -0.25267959 -0.92423290
vn -0.31640440 0.87779769 -0.35966577
vn -0.13337271 0.37915538 -0.91567075
vn -0.55139207 0.74063100 -0.38396941
vn -0.39658534 0.83370415 -0.38426223
vn -0.22631745 0.89505472 -0.38426223
vn -4.7352311e-2 0.92200884 -0.38426223
vn 0.13343255 0.91353068 -0.38426223
vn 0.30908968 0.86994604 -0.38426223
vn 0.47286866 0.79292987 -0.38426223
vn -1.3901527e-3 -0.86839172 0.49587689
vn -1.3901527e-3 -0.86839172 -0.49587689
vn -5.9369407e-4 -0.39112532 -0.92033724
vn -0.30076439 0.40445995 -0.86368567
vn -0.21634390 0.45479948 -0.86391709
vn -0.12345993 0.48826724 -0.86391709
vn -2.5831474e-2 0.50297116 -0.86391709
vn 7.2789677e-2 0.49834618 -0.86391709
vn 0.16861356 0.47457004 -0.86391709
vn 0.25795772 0.43255643 -0.86391709
vn 0.33738871 0.37391993 -0.86391709
vn 0.40385404 0.30091389 -0.86391709
vn 0.45479948 0.21634390 -0.86391709
vn 0.48826724 0.12345993 -0.86391709
vn 0.50297116 2.5831474e-2 -0.86391709
vn 0.49834618 -7.2789677e-2 -0.86391709
vn 0.47457004 -0.16861356 -0.86391709
vn 0.43314384 -0.25774693 -0.86368567
vn -0.42830155 -0.26571574 -0.86368567
vn -0.47136957 -0.17736398 -0.86391709
vn -0.49691433 -8.1996343e-2 -0.86391709
vn -0.50336296 1.6522371e-2 -0.86391709
vn -0.49046762 0.11440614 -0.86391709
vn -0.45872389 0.20789334 -0.86391709
vn -0.40935166 0.29339132 -0.86391709
vn -0.34424828 0.36761444 -0.86391709
vn -0.26591563 0.42771034 -0.86391709
vn -0.17736398 0.47136957 -0.86391709
vn -8.1996343e-2 0.49691433 -0.86391709
vn 1.6522371e-2 0.50336296 -0.86391709
vn 0.11440614 0.49046762 -0.86391709
vn 0.20789334 0.45872389 -0.86391709
vn 0.29323064 0.40995471 -0.86368567
vn 0.43314384 -0.25774693 0.86368567
vn 0.47457004 -0.16861356 0.86391709
vn 0.49834618 -7.2789677e-2 0.86391709
vn 0.50297116 2.5831474e-2 0.86391709
vn 0.48826724 0.12345993 0.86391709
vn 0.45479948 0.21634390 0.86391709
vn 0.40385404 0.30091389 0.86391709
vn 0.33738871 0.37391993 0.86391709
vn 0.25795772 0.43255643 0.86391709
vn 0.16861356 0.47457004 0.86391709
vn 7.2789677e-2 0.49834618 0.86391709
vn -2.5831474e-2 0.50297116 0.86391709
vn -0.12345993 0.48826724 0.86391709
vn -0.21634390 0.45479948 0.86391709
vn -0.30076439 0.40445995 0.86368567
vn 0.29323064 0.40995471 0.86368567
vn 0.20789334 0.45872389 0.86391709
vn 0.11440614 0.49046762 0.86391709
vn 1.6522371e-2 0.50336296 0.86391709
vn -8.1996343e-2 0.49691433 0.86391709
vn -0.17736398 0.47136957 0.86391709
vn -0.26591563 0.42771034 0.86391709
vn -0.34424828 0.36761444 0.86391709
vn -0.40935166 0.29339132 0.86391709
vn -0.45872389 0.20789334 0.86391709
vn -0.49046762 0.11440614 0.86391709
vn -0.50336296 1.6522371e-2 0.86391709
vn -0.49691433 -8.1996343e-2 0.86391709
vn -0.47136957 -0.17736398 0.86391709
vn -0.42830155 -0.26571574 0.86368567
vn -5.9369407e-4 -0.39112532 0.92033724
g cylinder3_heartz
usemtl heartz
f 1//1 139//139 3//3 2//2
f 1//1 140//140 47//47 49//49 18//18
f 2//2 3//3 22//22 20//20
f 2//2 77//77 140//140 1//1
f 3//3 4//4 23//23 22//22
f 3//3 139//139 138//138 4//4
f 4//4 5//5 24//24 23//23
f 4//4 138//138 137//137 5//5
f 5//5 6//6 25//25 24//24
f 5//5 137//137 136//136 6//6
f 6//6 7//7 26//26 25//25
f 6//6 136//136 135//135 7//7
f 7//7 8//8 27//27 26//26
f 7//7 135//135 134//134 8//8
f 8//8 9//9 28//28 27//27
f 8//8 134//134 133//133 9//9
f 9//9 10//10 29//29 28//28
f 9//9 133//133 132//132 10//10
f 10//10 11//11 30//30 29//29
f 11//11 10//10 132//132 131//131
f 11//11 12//12 31//31 30//30
f 12//12 11//11 131//131 130//130
f 12//12 13//13 32//32 31//31
f 12//12 130//130 129//129 13//13
f 13//13 14//14 33//33 32//32
f 13//13 129//129 128//128 14//14
f 14//14 15//15 34//34 33//33
f 14//14 128//128 127//127 15//15
f 15//15 16//16 35//35 34//34
f 15//15 127//127 126//126 16//16
f 16//16 17//17 36//36 35//35
f 16//16 126//126 125//125 17//17
f 17//17 19//19 37//37 36//36
f 18//18 49//49 50//50 19//19
f 18//18 125//125 126//126 127//127 128//128 129//129 130//130 131//131 132//132 133//133 134//134 135//135 136//136 137//137 138//138 139//139 1//1
f 19//19 17//17 125//125 18//18
f 19//19 50//50 68//68 37//37
f 20//20 22//22 95//95 21//21
f 20//20 78//78 77//77 2//2
f 21//21 79//79 78//78 20//20
f 21//21 95//95 96//96 97//97 98//98 99//99 100//100 101//101 102//102 103//103 104//104 105//105 106//106 107//107 108//108 109//109 38//38
f 23//23 96//96 95//95 22//22
f 24//24 97//97 96//96 23//23
f 25//25 98//98 97//97 24//24
f 26//26 27//27 100//100 99//99
f 26//26 99//99 98//98 25//25
f 27//27 28//28 101//101 100//100
f 29//29 102//102 101//101 28//28
f 30//30 103//103 102//102 29//29
f 31//31 104//104 103//103 30//30
f 32//32 105//105 104//104 31//31
f 33//33 106//106 105//105 32//32
f 34//34 107//107 106//106 33//33
f 35//35 36//36 109//109 108//108
f 35//35 108//108 107//107 34//34
f 37//37 68//68 69//69 38//38
f 38//38 69//69 67//67 79//79 21//21
f 38//38 109//109 36//36 37//37
f 39//39 40//40 59//59 58//58
f 39//39 57//57 118//118 117//117
f 40//40 39//39 117//117 116//116
f 40//40 41//41 60//60 59//59
f 40//40 116//116 115//115 41//41
f 41//41 42//42 61//61 60//60
f 41//41 115//115 114//114 42//42
f 42//42 43//43 62//62 61//61
f 42//42 114//114 113//113 43//43
f 43//43 44//44 63//63 62//62
f 43//43 113//113 112//112 44//44
f 44//44 45//45 64//64 63//63
f 45//45 44//44 112//112 111//111
f 45//45 46//46 65//65 64//64
f 45//45 111//111 110//110 46//46
f 46//46 48//48 66//66 65//65
f 47//47 110//110 111//111 112//112 113//113 114//114 115//115 116//116 117//117 118//118 119//119 120//120 121//121 122//122 123//123 124//124 49//49
f 47//47 140//140 77//77 48//48
f 48//48 46//46 110//110 47//47
f 48//48 77//77 78//78 66//66
f 49//49 124//124 51//51 50//50
f 50//50 51//51 70//70 68//68
f 51//51 52//52 71//71 70//70
f 51//51 124//124 123//123 52//52
f 52//52 53//53 72//72 71//71
f 53//53 52//52 123//123 122//122
f 53//53 54//54 73//73 72//72
f 53//53 122//122 121//121 54//54
f 54//54 55//55 74//74 73//73
f 54//54 121//121 120//120 55//55
f 55//55 56//56 75//75 74//74
f 55//55 120//120 119//119 56//56
f 56//56 57//57 76//76 75//75
f 57//57 56//56 119//119 118//118
f 58//58 76//76 57//57 39//39
f 59//59 88//88 87//87 58//58
f 60//60 89//89 88//88 59//59
f 61//61 62//62 91//91 90//90
f 61//61 90//90 89//89 60//60
f 62//62 63//63 92//92 91//91
f 63//63 64//64 93//93 92//92
f 64//64 65//65 94//94 93//93
f 66//66 78//78 79//79 67//67
f 67//67 94//94 65//65 66//66
f 68//68 70//70 80//80 69//69
f 69//69 80//80 81//81 82//82 83//83 84//84 85//85 86//86 87//87 88//88 89//89 90//90 91//91 92//92 93//93 94//94 67//67
f 70//70 71//71 81//81 80//80
f 71//71 72//72 82//82 81//81
f 72//72 73//73 83//83 82//82
f 74//74 84//84 83//83 73//73
f 75//75 85//85 84//84 74//74
f 76//76 58//58 87//87 86//86
f 76//76 86//86 85//85 75//75
