  0
SECTION
  2
ENTITIES
  0
3DFACE
  8
0
 10
36.999989
 20
-36.555511
 30
-77.777740
 11
29.999989
 21
-49.555508
 31
-77.777740
 12
36.999989
 22
-36.555511
 32
-85.777740
 13
36.999989
 23
-36.555511
 33
-85.777740
  0
3DFACE
  8
0
 10
29.999989
 20
-49.555508
 30
-77.777740
 11
29.999989
 21
-49.555508
 31
-85.777740
 12
36.999989
 22
-36.555511
 32
-85.777740
 13
36.999989
 23
-36.555511
 33
-85.777740
  0
3DFACE
  8
0
 10
29.999989
 20
-49.555508
 30
-77.777740
 11
15.999989
 21
-54.555508
 31
-77.777740
 12
29.999989
 22
-49.555508
 32
-85.777740
 13
29.999989
 23
-49.555508
 33
-85.777740
  0
3DFACE
  8
0
 10
15.999989
 20
-54.555508
 30
-77.777740
 11
15.999989
 21
-54.555508
 31
-85.777740
 12
29.999989
 22
-49.555508
 32
-85.777740
 13
29.999989
 23
-49.555508
 33
-85.777740
  0
3DFACE
  8
0
 10
15.999989
 20
-54.555508
 30
-77.777740
 11
-1.000011
 21
-43.555519
 31
-77.777740
 12
15.999989
 22
-54.555508
 32
-85.777740
 13
15.999989
 23
-54.555508
 33
-85.777740
  0
3DFACE
  8
0
 10
-1.000011
 20
-43.555519
 30
-77.777740
 11
-1.000011
 21
-43.555519
 31
-85.777740
 12
15.999989
 22
-54.555508
 32
-85.777740
 13
15.999989
 23
-54.555508
 33
-85.777740
  0
3DFACE
  8
0
 10
-1.000011
 20
-43.555519
 30
-77.777740
 11
-18.000015
 21
-54.555519
 31
-77.777740
 12
-1.000011
 22
-43.555519
 32
-85.777740
 13
-1.000011
 23
-43.555519
 33
-85.777740
  0
3DFACE
  8
0
 10
-18.000015
 20
-54.555519
 30
-77.777740
 11
-18.000015
 21
-54.555519
 31
-85.777740
 12
-1.000011
 22
-43.555519
 32
-85.777740
 13
-1.000011
 23
-43.555519
 33
-85.777740
  0
3DFACE
  8
0
 10
-18.000015
 20
-54.555519
 30
-77.777740
 11
-34.000015
 21
-48.555519
 31
-77.777740
 12
-18.000015
 22
-54.555519
 32
-85.777740
 13
-18.000015
 23
-54.555519
 33
-85.777740
  0
3DFACE
  8
0
 10
-34.000015
 20
-48.555519
 30
-77.777740
 11
-34.000015
 21
-48.555519
 31
-85.777740
 12
-18.000015
 22
-54.555519
 32
-85.777740
 13
-18.000015
 23
-54.555519
 33
-85.777740
  0
3DFACE
  8
0
 10
-34.000015
 20
-48.555519
 30
-77.777740
 11
-40.000015
 21
-33.555519
 31
-77.777740
 12
-34.000015
 22
-48.555519
 32
-85.777740
 13
-34.000015
 23
-48.555519
 33
-85.777740
  0
3DFACE
  8
0
 10
-40.000015
 20
-33.555519
 30
-77.777740
 11
-40.000015
 21
-33.555519
 31
-85.777740
 12
-34.000015
 22
-48.555519
 32
-85.777740
 13
-34.000015
 23
-48.555519
 33
-85.777740
  0
3DFACE
  8
0
 10
-40.000015
 20
-33.555519
 30
-77.777740
 11
-36.000015
 21
-17.555515
 31
-77.777740
 12
-40.000015
 22
-33.555519
 32
-85.777740
 13
-40.000015
 23
-33.555519
 33
-85.777740
  0
3DFACE
  8
0
 10
-36.000015
 20
-17.555515
 30
-77.777740
 11
-36.000015
 21
-17.555515
 31
-85.777740
 12
-40.000015
 22
-33.555519
 32
-85.777740
 13
-40.000015
 23
-33.555519
 33
-85.777740
  0
3DFACE
  8
0
 10
-36.000015
 20
-17.555515
 30
-77.777740
 11
-28.000015
 21
-3.555515
 31
-77.777748
 12
-36.000015
 22
-17.555515
 32
-85.777740
 13
-36.000015
 23
-17.555515
 33
-85.777740
  0
3DFACE
  8
0
 10
-28.000015
 20
-3.555515
 30
-77.777748
 11
-28.000015
 21
-3.555515
 31
-85.777748
 12
-36.000015
 22
-17.555515
 32
-85.777740
 13
-36.000015
 23
-17.555515
 33
-85.777740
  0
3DFACE
  8
0
 10
-28.000015
 20
-3.555515
 30
-77.777748
 11
-15.000015
 21
9.444485
 31
-77.777748
 12
-28.000015
 22
-3.555515
 32
-85.777748
 13
-28.000015
 23
-3.555515
 33
-85.777748
  0
3DFACE
  8
0
 10
-15.000015
 20
9.444485
 30
-77.777748
 11
-15.000015
 21
9.444485
 31
-85.777748
 12
-28.000015
 22
-3.555515
 32
-85.777748
 13
-28.000015
 23
-3.555515
 33
-85.777748
  0
3DFACE
  8
0
 10
-15.000015
 20
9.444485
 30
-77.777748
 11
-1.000011
 21
20.444485
 31
-77.777748
 12
-15.000015
 22
9.444485
 32
-85.777748
 13
-15.000015
 23
9.444485
 33
-85.777748
  0
3DFACE
  8
0
 10
-1.000011
 20
20.444485
 30
-77.777748
 11
-1.000011
 21
20.444485
 31
-85.777748
 12
-15.000015
 22
9.444485
 32
-85.777748
 13
-15.000015
 23
9.444485
 33
-85.777748
  0
3DFACE
  8
0
 10
-1.000011
 20
20.444485
 30
-77.777748
 11
11.999989
 21
11.444485
 31
-77.777748
 12
-1.000011
 22
20.444485
 32
-85.777748
 13
-1.000011
 23
20.444485
 33
-85.777748
  0
3DFACE
  8
0
 10
11.999989
 20
11.444485
 30
-77.777748
 11
11.999989
 21
11.444485
 31
-85.777748
 12
-1.000011
 22
20.444485
 32
-85.777748
 13
-1.000011
 23
20.444485
 33
-85.777748
  0
3DFACE
  8
0
 10
11.999989
 20
11.444485
 30
-77.777748
 11
22.999989
 21
-0.555515
 31
-77.777748
 12
11.999989
 22
11.444485
 32
-85.777748
 13
11.999989
 23
11.444485
 33
-85.777748
  0
3DFACE
  8
0
 10
22.999989
 20
-0.555515
 30
-77.777748
 11
22.999989
 21
-0.555515
 31
-85.777748
 12
11.999989
 22
11.444485
 32
-85.777748
 13
11.999989
 23
11.444485
 33
-85.777748
  0
3DFACE
  8
0
 10
22.999989
 20
-0.555515
 30
-77.777748
 11
32.999989
 21
-16.555517
 31
-77.777740
 12
22.999989
 22
-0.555515
 32
-85.777748
 13
22.999989
 23
-0.555515
 33
-85.777748
  0
3DFACE
  8
0
 10
32.999989
 20
-16.555517
 30
-77.777740
 11
32.999989
 21
-16.555517
 31
-85.777740
 12
22.999989
 22
-0.555515
 32
-85.777748
 13
22.999989
 23
-0.555515
 33
-85.777748
  0
3DFACE
  8
0
 10
32.999989
 20
-16.555517
 30
-77.777740
 11
36.999989
 21
-29.555510
 31
-77.777740
 12
32.999989
 22
-16.555517
 32
-85.777740
 13
32.999989
 23
-16.555517
 33
-85.777740
  0
3DFACE
  8
0
 10
36.999989
 20
-29.555510
 30
-77.777740
 11
36.999989
 21
-29.555510
 31
-85.777740
 12
32.999989
 22
-16.555517
 32
-85.777740
 13
32.999989
 23
-16.555517
 33
-85.777740
  0
3DFACE
  8
0
 10
36.999989
 20
-29.555510
 30
-77.777740
 11
36.999989
 21
-36.555511
 31
-77.777740
 12
36.999989
 22
-29.555510
 32
-85.777740
 13
36.999989
 23
-29.555510
 33
-85.777740
  0
3DFACE
  8
0
 10
36.999989
 20
-36.555511
 30
-85.777740
 11
36.999989
 21
-36.555511
 31
-77.777740
 12
36.999989
 22
-29.555510
 32
-85.777740
 13
36.999989
 23
-29.555510
 33
-85.777740
  0
3DFACE
  8
0
 10
29.999989
 20
-49.555508
 30
-85.777740
 11
36.999989
 21
-36.555511
 31
-85.777740
 12
29.999989
 22
-30.555510
 32
-92.777740
 13
29.999989
 23
-30.555510
 33
-92.777740
  0
3DFACE
  8
0
 10
29.999989
 20
-49.555508
 30
-85.777740
 11
25.999989
 21
-43.555511
 31
-92.777740
 12
29.999989
 22
-30.555510
 32
-92.777740
 13
29.999989
 23
-30.555510
 33
-92.777740
  0
3DFACE
  8
0
 10
15.999989
 20
-54.555508
 30
-85.777740
 11
29.999989
 21
-49.555508
 31
-85.777740
 12
25.999989
 22
-43.555511
 32
-92.777740
 13
25.999989
 23
-43.555511
 33
-92.777740
  0
3DFACE
  8
0
 10
15.999989
 20
-54.555508
 30
-85.777740
 11
16.999989
 21
-46.555508
 31
-92.777740
 12
25.999989
 22
-43.555511
 32
-92.777740
 13
25.999989
 23
-43.555511
 33
-92.777740
  0
3DFACE
  8
0
 10
-1.000011
 20
-43.555519
 30
-85.777740
 11
15.999989
 21
-54.555508
 31
-85.777740
 12
16.999989
 22
-46.555508
 32
-92.777740
 13
16.999989
 23
-46.555508
 33
-92.777740
  0
3DFACE
  8
0
 10
-1.000011
 20
-43.555519
 30
-85.777740
 11
-1.000011
 21
-35.555519
 31
-92.777740
 12
16.999989
 22
-46.555508
 32
-92.777740
 13
16.999989
 23
-46.555508
 33
-92.777740
  0
3DFACE
  8
0
 10
-18.000015
 20
-54.555519
 30
-85.777740
 11
-1.000011
 21
-43.555519
 31
-85.777740
 12
-1.000011
 22
-35.555519
 32
-92.777740
 13
-1.000011
 23
-35.555519
 33
-92.777740
  0
3DFACE
  8
0
 10
-18.000015
 20
-54.555519
 30
-85.777740
 11
-19.000015
 21
-46.555519
 31
-92.777740
 12
-1.000011
 22
-35.555519
 32
-92.777740
 13
-1.000011
 23
-35.555519
 33
-92.777740
  0
3DFACE
  8
0
 10
-34.000015
 20
-48.555519
 30
-85.777740
 11
-18.000015
 21
-54.555519
 31
-85.777740
 12
-19.000015
 22
-46.555519
 32
-92.777740
 13
-19.000015
 23
-46.555519
 33
-92.777740
  0
3DFACE
  8
0
 10
-34.000015
 20
-48.555519
 30
-85.777740
 11
-28.000015
 21
-42.555519
 31
-92.777740
 12
-19.000015
 22
-46.555519
 32
-92.777740
 13
-19.000015
 23
-46.555519
 33
-92.777740
  0
3DFACE
  8
0
 10
-40.000015
 20
-33.555519
 30
-85.777740
 11
-34.000015
 21
-48.555519
 31
-85.777740
 12
-28.000015
 22
-42.555519
 32
-92.777740
 13
-28.000015
 23
-42.555519
 33
-92.777740
  0
3DFACE
  8
0
 10
-40.000015
 20
-33.555519
 30
-85.777740
 11
-32.000015
 21
-32.555519
 31
-92.777740
 12
-28.000015
 22
-42.555519
 32
-92.777740
 13
-28.000015
 23
-42.555519
 33
-92.777740
  0
3DFACE
  8
0
 10
-36.000015
 20
-17.555515
 30
-85.777740
 11
-40.000015
 21
-33.555519
 31
-85.777740
 12
-32.000015
 22
-32.555519
 32
-92.777740
 13
-32.000015
 23
-32.555519
 33
-92.777740
  0
3DFACE
  8
0
 10
-36.000015
 20
-17.555515
 30
-85.777740
 11
-22.000015
 21
-8.555515
 31
-92.777748
 12
-32.000015
 22
-32.555519
 32
-92.777740
 13
-32.000015
 23
-32.555519
 33
-92.777740
  0
3DFACE
  8
0
 10
-28.000015
 20
-3.555515
 30
-85.777748
 11
-36.000015
 21
-17.555515
 31
-85.777740
 12
-22.000015
 22
-8.555515
 32
-92.777748
 13
-22.000015
 23
-8.555515
 33
-92.777748
  0
3DFACE
  8
0
 10
-15.000015
 20
9.444485
 30
-85.777748
 11
-28.000015
 21
-3.555515
 31
-85.777748
 12
-22.000015
 22
-8.555515
 32
-92.777748
 13
-22.000015
 23
-8.555515
 33
-92.777748
  0
3DFACE
  8
0
 10
-15.000015
 20
9.444485
 30
-85.777748
 11
-1.000011
 21
11.444485
 31
-92.777748
 12
-22.000015
 22
-8.555515
 32
-92.777748
 13
-22.000015
 23
-8.555515
 33
-92.777748
  0
3DFACE
  8
0
 10
-1.000011
 20
20.444485
 30
-85.777748
 11
-15.000015
 21
9.444485
 31
-85.777748
 12
-1.000011
 22
11.444485
 32
-92.777748
 13
-1.000011
 23
11.444485
 33
-92.777748
  0
3DFACE
  8
0
 10
11.999989
 20
11.444485
 30
-85.777748
 11
-1.000011
 21
20.444485
 31
-85.777748
 12
-1.000011
 22
11.444485
 32
-92.777748
 13
-1.000011
 23
11.444485
 33
-92.777748
  0
3DFACE
  8
0
 10
22.999989
 20
-0.555515
 30
-85.777748
 11
11.999989
 21
11.444485
 31
-85.777748
 12
-1.000011
 22
11.444485
 32
-92.777748
 13
-1.000011
 23
11.444485
 33
-92.777748
  0
3DFACE
  8
0
 10
22.999989
 20
-0.555515
 30
-85.777748
 11
16.999989
 21
-4.555515
 31
-92.777748
 12
-1.000011
 22
11.444485
 32
-92.777748
 13
-1.000011
 23
11.444485
 33
-92.777748
  0
3DFACE
  8
0
 10
32.999989
 20
-16.555517
 30
-85.777740
 11
22.999989
 21
-0.555515
 31
-85.777748
 12
16.999989
 22
-4.555515
 32
-92.777748
 13
16.999989
 23
-4.555515
 33
-92.777748
  0
3DFACE
  8
0
 10
32.999989
 20
-16.555517
 30
-85.777740
 11
29.999989
 21
-30.555510
 31
-92.777740
 12
16.999989
 22
-4.555515
 32
-92.777748
 13
16.999989
 23
-4.555515
 33
-92.777748
  0
3DFACE
  8
0
 10
36.999989
 20
-29.555510
 30
-85.777740
 11
32.999989
 21
-16.555517
 31
-85.777740
 12
29.999989
 22
-30.555510
 32
-92.777740
 13
29.999989
 23
-30.555510
 33
-92.777740
  0
3DFACE
  8
0
 10
36.999989
 20
-29.555510
 30
-85.777740
 11
36.999989
 21
-36.555511
 31
-85.777740
 12
29.999989
 22
-30.555510
 32
-92.777740
 13
29.999989
 23
-30.555510
 33
-92.777740
  0
3DFACE
  8
0
 10
-19.000015
 20
-46.555519
 30
-92.777740
 11
-1.000011
 21
-35.555519
 31
-92.777740
 12
-28.000015
 22
-42.555519
 32
-92.777740
 13
-28.000015
 23
-42.555519
 33
-92.777740
  0
3DFACE
  8
0
 10
-1.000011
 20
-35.555519
 30
-92.777740
 11
-28.000015
 21
-42.555519
 31
-92.777740
 12
-32.000015
 22
-32.555519
 32
-92.777740
 13
-32.000015
 23
-32.555519
 33
-92.777740
  0
3DFACE
  8
0
 10
-32.000015
 20
-32.555519
 30
-92.777740
 11
-1.000011
 21
-35.555519
 31
-92.777740
 12
-22.000015
 22
-8.555515
 32
-92.777748
 13
-22.000015
 23
-8.555515
 33
-92.777748
  0
3DFACE
  8
0
 10
-22.000015
 20
-8.555515
 30
-92.777748
 11
-1.000011
 21
-35.555519
 31
-92.777740
 12
-1.000011
 22
11.444485
 32
-92.777748
 13
-1.000011
 23
11.444485
 33
-92.777748
  0
3DFACE
  8
0
 10
-1.000011
 20
11.444485
 30
-92.777748
 11
-1.000011
 21
-35.555519
 31
-92.777740
 12
16.999989
 22
-4.555515
 32
-92.777748
 13
16.999989
 23
-4.555515
 33
-92.777748
  0
3DFACE
  8
0
 10
-1.000011
 20
-35.555519
 30
-92.777740
 11
16.999989
 21
-46.555508
 31
-92.777740
 12
16.999989
 22
-4.555515
 32
-92.777748
 13
16.999989
 23
-4.555515
 33
-92.777748
  0
3DFACE
  8
0
 10
16.999989
 20
-46.555508
 30
-92.777740
 11
16.999989
 21
-4.555515
 31
-92.777748
 12
29.999989
 22
-30.555510
 32
-92.777740
 13
29.999989
 23
-30.555510
 33
-92.777740
  0
3DFACE
  8
0
 10
16.999989
 20
-46.555508
 30
-92.777740
 11
25.999989
 21
-43.555511
 31
-92.777740
 12
29.999989
 22
-30.555510
 32
-92.777740
 13
29.999989
 23
-30.555510
 33
-92.777740
  0
ENDSEC
  0
EOF
